<mxfile host="app.diagrams.net" modified="2023-07-30T01:10:01.626Z" agent="Mozilla/5.0 (Windows NT 10.0; Win64; x64) AppleWebKit/537.36 (KHTML, like Gecko) Chrome/114.0.0.0 YaBrowser/23.7.1.1140 Yowser/2.5 Safari/537.36" etag="Jrg399dt6qnZ5FI7getw" version="21.3.3" type="github">
  <diagram name="Страница 1" id="s0EhZoxvRjgRyJu2h_G5">
    <mxGraphModel dx="2853" dy="1151" grid="1" gridSize="10" guides="1" tooltips="1" connect="1" arrows="1" fold="1" page="1" pageScale="1" pageWidth="827" pageHeight="1169" math="0" shadow="0">
      <root>
        <mxCell id="0" />
        <mxCell id="1" parent="0" />
        <mxCell id="3Iq3cVps5vnptgtIOH3R-2" value="Спонсорблок" style="swimlane;whiteSpace=wrap;html=1;" vertex="1" parent="1">
          <mxGeometry x="-530" y="100" width="510" height="430" as="geometry" />
        </mxCell>
        <mxCell id="3Iq3cVps5vnptgtIOH3R-3" value="Веб-сервер" style="ellipse;whiteSpace=wrap;html=1;" vertex="1" parent="3Iq3cVps5vnptgtIOH3R-2">
          <mxGeometry x="110" y="150" width="120" height="80" as="geometry" />
        </mxCell>
        <mxCell id="3Iq3cVps5vnptgtIOH3R-5" value="json" style="rhombus;whiteSpace=wrap;html=1;" vertex="1" parent="3Iq3cVps5vnptgtIOH3R-2">
          <mxGeometry x="130" y="270" width="80" height="80" as="geometry" />
        </mxCell>
        <mxCell id="3Iq3cVps5vnptgtIOH3R-6" value="" style="endArrow=classic;html=1;rounded=0;exitX=0.5;exitY=1;exitDx=0;exitDy=0;entryX=0.5;entryY=0;entryDx=0;entryDy=0;" edge="1" parent="3Iq3cVps5vnptgtIOH3R-2" source="3Iq3cVps5vnptgtIOH3R-3" target="3Iq3cVps5vnptgtIOH3R-5">
          <mxGeometry width="50" height="50" relative="1" as="geometry">
            <mxPoint x="920" y="510" as="sourcePoint" />
            <mxPoint x="970" y="460" as="targetPoint" />
          </mxGeometry>
        </mxCell>
        <mxCell id="3Iq3cVps5vnptgtIOH3R-7" value="Warn система" style="swimlane;whiteSpace=wrap;html=1;" vertex="1" parent="1">
          <mxGeometry x="10" y="100" width="510" height="430" as="geometry" />
        </mxCell>
        <mxCell id="3Iq3cVps5vnptgtIOH3R-8" value="БД" style="ellipse;whiteSpace=wrap;html=1;" vertex="1" parent="3Iq3cVps5vnptgtIOH3R-7">
          <mxGeometry x="110" y="40" width="120" height="80" as="geometry" />
        </mxCell>
        <mxCell id="3Iq3cVps5vnptgtIOH3R-9" value="скрипт" style="rhombus;whiteSpace=wrap;html=1;" vertex="1" parent="3Iq3cVps5vnptgtIOH3R-7">
          <mxGeometry x="130" y="160" width="80" height="80" as="geometry" />
        </mxCell>
        <mxCell id="3Iq3cVps5vnptgtIOH3R-10" value="" style="endArrow=classic;html=1;rounded=0;exitX=0.5;exitY=1;exitDx=0;exitDy=0;entryX=0.5;entryY=0;entryDx=0;entryDy=0;" edge="1" parent="3Iq3cVps5vnptgtIOH3R-7" source="3Iq3cVps5vnptgtIOH3R-8" target="3Iq3cVps5vnptgtIOH3R-9">
          <mxGeometry width="50" height="50" relative="1" as="geometry">
            <mxPoint x="920" y="510" as="sourcePoint" />
            <mxPoint x="970" y="460" as="targetPoint" />
          </mxGeometry>
        </mxCell>
        <mxCell id="3Iq3cVps5vnptgtIOH3R-11" value="Дискорд" style="whiteSpace=wrap;html=1;aspect=fixed;" vertex="1" parent="3Iq3cVps5vnptgtIOH3R-7">
          <mxGeometry x="130" y="290" width="80" height="80" as="geometry" />
        </mxCell>
        <mxCell id="3Iq3cVps5vnptgtIOH3R-12" value="" style="endArrow=classic;html=1;rounded=0;exitX=0.5;exitY=1;exitDx=0;exitDy=0;entryX=0.5;entryY=0;entryDx=0;entryDy=0;" edge="1" parent="3Iq3cVps5vnptgtIOH3R-7" source="3Iq3cVps5vnptgtIOH3R-9" target="3Iq3cVps5vnptgtIOH3R-11">
          <mxGeometry width="50" height="50" relative="1" as="geometry">
            <mxPoint x="180" y="130" as="sourcePoint" />
            <mxPoint x="180" y="170" as="targetPoint" />
            <Array as="points" />
          </mxGeometry>
        </mxCell>
      </root>
    </mxGraphModel>
  </diagram>
</mxfile>
